<svg xmlns="http://www.w3.org/2000/svg" xmlns:xlink="http://www.w3.org/1999/xlink" viewBox="0 0 300 300"><defs><style>.cls-1{fill:#44599d;}.cls-2{fill:#fff;}.cls-3{isolation:isolate;}.cls-4{clip-path:url(#clip-path);}.cls-5{fill:#7e94d4;}.cls-6{mix-blend-mode:multiply;}.cls-7{fill:#c4c6c8;}.cls-8{fill:#e2bc50;}.cls-9{fill:#3e3d38;}.cls-10{fill:#2d2d2d;}.cls-11{clip-path:url(#clip-path-2);}.cls-12{fill:#4f68af;}</style><clipPath id="clip-path"><circle class="cls-1" cx="149.39" cy="150.05" r="132.53"/></clipPath><clipPath id="clip-path-2"><polygon id="_Clipping_Path_" data-name="&lt;Clipping Path&gt;" class="cls-2" points="147.74 316.68 107.19 220.55 188.29 220.55 147.74 316.68"/></clipPath></defs><title>avatars</title><g class="cls-3"><g id="Layer_1" data-name="Layer 1"><circle class="cls-1" cx="149.39" cy="150.05" r="132.53"/><g class="cls-4"><ellipse class="cls-5" cx="109.13" cy="147.72" rx="14.09" ry="10.57" transform="matrix(0.01, -1, 1, 0.01, -39.55, 255.54)"/><ellipse class="cls-5" cx="188.69" cy="148.42" rx="14.09" ry="10.57" transform="translate(38.62 335.8) rotate(-89.49)"/><path class="cls-5" d="M189.17,299.48H109.6V84a28,28,0,0,1,28.2-27.7l23.67.21a28,28,0,0,1,27.7,28.2Z"/><g class="cls-6"><path class="cls-7" d="M130.74,168.34c0,.08-.09.27,0,.25l.14-.3Z"/><path class="cls-7" d="M130.95,169a1.41,1.41,0,0,0,.32-.69c-.16.29-.14.15-.32.5-.07,0-.07-.13,0-.24,0,.08-.07-.1-.16.09s.09.3.25.13A.6.6,0,0,1,130.95,169Z"/><path class="cls-7" d="M136.48,171l0,0A.07.07,0,0,0,136.48,171Z"/><path class="cls-7" d="M140,172s0,0-.05.06S140,172,140,172Z"/><path class="cls-7" d="M140.57,172.43l0,0S140.56,172.46,140.57,172.43Z"/><path class="cls-7" d="M136.48,171l.07.12C136.58,171.06,136.52,171.08,136.48,171Z"/><path class="cls-7" d="M131.95,168.5a.21.21,0,0,0-.07.07l.06,0Z"/><path class="cls-7" d="M134.85,170.93h0l-.06.12Z"/><path class="cls-7" d="M133.64,170.67s.11-.25.15-.37c0,.11-.08.16-.11.17A1.63,1.63,0,0,0,133.64,170.67Z"/><path class="cls-7" d="M131.89,169.67l0,0Z"/><path class="cls-7" d="M135.7,171.21a.69.69,0,0,0,0,.1A.47.47,0,0,0,135.7,171.21Z"/><path class="cls-7" d="M169.23,168.21l0,0S169.24,168.21,169.23,168.21Z"/><polygon class="cls-7" points="171.04 169.04 171.02 169.06 171.08 169.21 171.04 169.04"/><path class="cls-7" d="M141.65,173h0S141.62,173,141.65,173Z"/><path class="cls-7" d="M152.22,173.6c-.12-.25.19-.32,0-.6C152.25,173.11,152.07,173.44,152.22,173.6Z"/><path class="cls-7" d="M132,168.54h0S132,168.53,132,168.54Z"/><path class="cls-7" d="M152.23,173h0l0,0Z"/><path class="cls-7" d="M144.3,173.17a.63.63,0,0,0,0-.13A.42.42,0,0,0,144.3,173.17Z"/><path class="cls-7" d="M142.4,172.51l0,0A.09.09,0,0,0,142.4,172.51Z"/><path class="cls-7" d="M145.36,172.89s0,.06.07,0v0S145.39,172.94,145.36,172.89Z"/><path class="cls-7" d="M146.42,173v-.06h0Z"/><path class="cls-7" d="M166.31,169.3a1.74,1.74,0,0,1,.11.23C166.35,169.34,166.48,169.22,166.31,169.3Z"/><path class="cls-7" d="M131.9,168.65c0-.07,0-.1.06-.11h0A.34.34,0,0,0,131.9,168.65Z"/><path class="cls-7" d="M145.63,170.69l.16.06A.33.33,0,0,0,145.63,170.69Z"/><path class="cls-7" d="M159.11,170.83l0,0S159.12,170.8,159.11,170.83Z"/><path class="cls-7" d="M146.28,170.76a.53.53,0,0,0,.07.2.37.37,0,0,0,0-.07Z"/><path class="cls-7" d="M166.43,169.53h0Z"/><path class="cls-7" d="M167.26,168.58c-.15,0,0,.37.07.58-.15.15-.16-.24-.28-.4-.08.13-.07.48-.16.49a.32.32,0,0,1,0-.15c0,.32-.34.12-.38.52l0-.08a3.32,3.32,0,0,1,.16.48c-.07,0-.06.26-.15,0,0,0,0-.1,0-.18l0,.12c-.16-.31.06-.14,0-.39-.11.15-.19.48-.32.41-.11-.32.22-.18,0-.43l.2.08c-.27-.48.11,0-.16-.51-.24,0-.19.24-.43.2,0,.19.09.27.09.46-.22.4-.46-.76-.57-.27,0,.23.08.66-.13.48l0-.39c-.22,0,0,.56-.27.37,0-.16.13-.16.09-.2-.22-.26,0,.24-.16.26l-.1-.32c-.21.11-.4.41-.63.53,0-.1,0-.22-.07-.3-.27.25-.68.11-1,0l-.06.31s-.08-.12-.06-.18c-.14-.09,0,.18,0,.31s-.12-.15-.1-.24c-.16.28-.49.64-.77.38l0-.09c-.19-.08-.08.63-.29.39l0-.06c-.39,0-.77.28-1.12-.12,0,.43-.4-.13-.33.46-.26-.26-.21-.37-.54-.52-.08,0-.07.38-.16.46l0-.3-.09.34-.12-.35-.08.09a.3.3,0,0,1,.1.21c-.13.16-.38-.16-.41-.32l-.31.3a.45.45,0,0,1,.08-.26c-.15.33-.07-.32-.21,0a.75.75,0,0,1,0,.25.29.29,0,0,0-.43-.07v-.21c-.26,0-.53.16-.82.18.11.09.12.46,0,.5l-.06-.32c0,.21.1.11,0,.37-.11,0-.11-.36-.06-.47l-.12.13a2,2,0,0,1,0-.27c0,.21-.25-.3-.3.06l0-.1c-.29,0-.41.15-.64.18,0,.28-.08.22-.13.45-.18-.08-.39-.29-.59-.25s0,.24-.09.41c0-.25-.23-.22-.14-.41a1.24,1.24,0,0,0-.62.29c0,.1.08.15.06.23s-.14-.1-.13-.22v0c-.34.41-.85-.71-1.11-.18l0,0-.29.28c-.14,0,.08-.19,0-.35-.31.43-.5-.06-.76.23-.2-.76-.72.07-1-.42v.18c-.07.17-.08-.1-.14-.15,0,.14.07.16,0,.26-.6.2-1.23-.3-1.83-.48-.22-.05-.17.92-.43.48l.1-.33c-.47.37-.92-.08-1.39.23,0-.07,0-.17.08-.17-.08-.25-.34,0-.36.16-.07,0,0-.18,0-.28s-.26.29-.29,0c0,0,0-.08.05-.09s-.28,0-.25.23c-.15-.14-.33.1-.45-.07-.12.3-.27-.18-.34.25.06-.45-.25-.4-.38-.2,0-.13-.08-.15,0-.33-.12,0-.24.06-.24.3-.16-.56-.49.38-.54-.32a4,4,0,0,1-1.07.4c.07-.44.36,0,.41-.48-.33.15-.55.51-.84.36-.07-.07.07-.19.11-.26-.33.14-.58-.13-.88.07a.23.23,0,0,1,.08-.11c-.06,0-.11-.08-.14.12l.06,0c0,.31-.3.58-.34.74.18-.57-.25-.19,0-.9a.39.39,0,0,0-.11.26s0-.13,0-.28c-.21.08-.17.31-.35.28a1.69,1.69,0,0,1,.09-.24c-.12.18-.24.36-.37.25,0-.06,0-.14.06-.13-.25,0-.51.44-.76.21.15-.41-.07-.16,0-.53l-.17.08,0,.19c-.13,0-.29.22-.38.07l.12-.13-.25,0,.11.16c-.17.16-.07.47-.22.33,0,0-.13,0-.16-.26h0c-.09.1-.18.22-.25.11s.1-.4.1-.48c-.12.29-.32,0-.46.34a1,1,0,0,0,.08-.3l-.1.24c0-.09,0-.13,0-.28-.17-.08,0,.48-.21.24,0,0,0-.06.06-.09-.19-.15-.45.08-.62-.08,0-.38.19-.05.19-.38-.29,0-.68.31-.93.16l0,.05c-.15.51-.15-.3-.34-.09a.6.6,0,0,0,.09-.22c-.17-.12-.41,0-.73.14l.07-.13c-.08-.14-.27-.13-.38-.22-.07.12-.13.09-.13.29-.19-.83-.8.24-1-.47,0,0,.12-.09.09-.1l-.31.05c0,.23,0,.14,0,.33s-.17.21-.24.19c.16-.12.09-.36.07-.5,0,.07,0,.14-.06.21,0-.44-.14.44-.27.13l0-.11c-.09,0-.2.18-.27.12,0-.27.11-.1.17-.31-.12,0-.35.43-.38.15.07-.06.13,0,.2-.1,0-.33-.06-.26-.13-.33h0l-.15-.19,0,.09c-.32.64-.32.05-.62.44.3-.37.1-.23.19-.52,0-.09-.07-.2,0-.28-.15.21-.1-.22-.32.09,0-.1-.09,0,0-.27-.13,0,0,.17-.06.29-.27.27-.31-.51-.68-.14-.27.12-.4.42-.65.52a.43.43,0,0,1,.15-.32c-.07-.17-.16-.17-.3-.09a.47.47,0,0,0,0-.27c-.09,0-.16.32-.23.15a2.52,2.52,0,0,1,.19-.35c-.12.06-.27.2-.4.26,0-.17.13-.23.2-.33a.57.57,0,0,0-.45.31l0,.11s0-.23.09-.27.12.13.09.23l-.09,0c-.09.57.32,0,.46.07l-.18.38.25-.29c0,.11,0,.34-.13.38,0,.23.13-.11.16.13a.08.08,0,0,1,0,.07l.14-.09c0,.08-.06.29-.11.21.12.28.39-.21.37.11l0,0c.3-.06.11-.29.4-.58l-.07.76.11-.29s.07.06,0,.17c.15-.17,0-.13.13-.31.05.3.39,0,.29.45.11-.21-.08-.2.1-.32-.1.51.18,0,.24.22-.11.25-.18.08-.13.35.19-.42.2.16.33.1.1-.35.26-.09.45-.16,0,.12.26.27.39.44l0,.06c.12-.35.26-.24.4-.28a.66.66,0,0,1-.19.37l.11,0c.05-.11.1-.16.19-.18l-.09.26c.15,0,.37-.24.52,0,.07-.25,0-.73.26-.85,0,.14-.07.37-.14.41s.09-.1.11,0l-.13.21c.06.12.09-.18.15-.14,0,.19,0,.15,0,.3s0-.09-.08,0a.45.45,0,0,1,.13.34c0-.11.06-.26.13-.27s0,.24.06.36c.07-.13.13,0,.2-.25,0,0,0,.15,0,.23.11-.11.37,0,.35-.28v0h0c.31-.23.48.28.76.21l0,.1c.17-.08.34,0,.49-.18,0,0,.07.2,0,.31.13,0,.16-.15.29,0-.15.14,0,.16-.14.1.13.12.13.28.34,0-.11.24,0,.34.13.28l-.07-.2a.31.31,0,0,1,.22.05l-.1.32c.23.45.68-.57.79.14.12-.21-.13-.19,0-.45.13.07.19.57.23.58.16.22.27-.44.45-.28,0-.12,0-.44.2-.52.13.07.08.52,0,.6s0,0,0-.08a.16.16,0,0,0-.09.21l0-.11c0,.13.24.16.16.34.13-.09.08-.18,0-.26.15.2.28.06.45.21,0-.07,0-.21,0-.21.25.2.16-.2.35-.22.07.2-.11.42.1.3.09.14,0,.31-.09.4.21-.2.29.2.39.25l-.11.08a.17.17,0,0,1,.15,0v-.24s.09.06.07.15c.08-.15,0-.4.16-.59.05.13.23-.1.21.22-.2-.14,0,.32-.22.34,0,0,.09,0,.13,0a.1.1,0,0,1,0,.08c.17.31.15-.34.37-.3-.05.17,0,.34,0,.31s0-.3.1-.42c.12.16.17-.08.24-.05l-.07-.08c.05-.17.12-.14.23-.18,0,.14-.1.08-.08.15.15-.29.2.36.38.17.05.13,0,.33,0,.42.2-.2.15.27.36.11,0-.24,0-.19.12-.4l-.32.12.24-.32c-.09,0-.21.12-.25.07.12-.18.1-.12.08-.32.07.37.27-.17.37.09l-.08.59c.18.3.42-.25.67-.07l-.08-.11c.07-.23.17,0,.27-.1a.87.87,0,0,0,0,.4c0-.15.2,0,.27-.35l.09.27c.21.13.32-.53.52-.44-.09.21,0,.36-.16.49.07,0,.13.05.15-.08,0,.13.23-.24.27,0,0-.08.07-.29.15-.26a.33.33,0,0,1,0,.1c0-.1.14-.12.09-.34.16.64.61,0,.75.56a1.91,1.91,0,0,1,.5-.11c0,.06,0,.1,0,.08.18.2.16-.56.37-.34s-.13.16-.07.29c0,.65.27-.07.4.32l0,0c.1.23.3-.23.48-.17a.35.35,0,0,0,0,.1,1,1,0,0,1,.58-.49c-.07.25-.09.13-.07.39.08,0,0-.42.16-.48a1.39,1.39,0,0,1,.15.55h-.15c.06.36.2,0,.27.06l0,.16c.24,0,.26-.44.5-.4l0-.12c.15-.38.11.22.25-.06l0,.4a2.32,2.32,0,0,1,.49-.44,2,2,0,0,1-.42.6.34.34,0,0,0,.36-.21s-.09.13-.12.07c.12-.31.27-.45.44-.44-.05.76.46.21.58.81.32-.27.63.13,1,.08-.13-.59.11,0,.08-.63.09,0,.12,0,.13,0l.26.36c.06.18-.08.14-.07.27.19,0,.08.26.21.42,0-.22.06-.31.17-.23l-.16-.28c.26-.33.24.51.5.19l-.08.19c.13-.12.51,0,.63-.49,0,.07.06.24,0,.28.33.08.7-.56,1-.26l0,.15c.06,0,.09-.29.18-.14s0,.15,0,.16.15-.27.23-.19l-.06.17c.33.18.46-.44.72-.55a.67.67,0,0,0,.42.63v.06c.38,0,.6-.41.93-.62.25.45.74.13,1.1.36a.46.46,0,0,1,0-.39c.09.08.19-.33.22.08h0c.11.39.26.27.39.26l0-.53c.43.74.83-.4,1.11.26.06-.14.16-.16.22-.3l0,.28a.92.92,0,0,0,.62-.05l0,.21c.16,0,.07-.84.21-.87l.11.41c.27,0,.61.28.81-.15,0,.06,0,.18,0,.21.13,0,.54.18.39-.38.07.37.29,0,.4-.21l0,.28c.05-.37,0-.47.19-.6,0,0,.08.21,0,.15.16.12.05-.28.24-.17l0,.19c.14,0,.11-.1.15-.32s.28,0,.35.26c0-.15,0-.37.11-.31a.29.29,0,0,1,0,.19c.27.14.27-.38.49-.16a.43.43,0,0,0,.06.16c-.18,0-.33.06-.32,0,.06.25.22.26.17.64.08-.21.19-.68.36-.59l0,.08v0s.06,0,.08-.06.09.05.14,0c.07.2.2.07.27.06-.07-.27,0-.25-.11-.45,0,0,0,0-.05.06s0,0,0,0v0l-.18.06c0-.15.06-.29.17-.15v-.47c.19.36.44.51.52.74.19-.21.5-.23.51-.78,0-.08.11.13.16.2s-.07.06-.07.14c.09-.16.36-.15.3-.51.2.12,0,.35.2.24v.12c.59.45.43-1.11,1.12-.53a.22.22,0,0,1-.09-.11c.64.15,1-.62,1.7-.3.18,0,.12-.18.16-.38l.13.27,0-.38c.13-.32.63.56.74,0l-.1-.18c.11,0,.27-.23.34,0,0,0,0-.21,0-.12l.06.15.15-.34c.23,0,.19.6.48.53a.84.84,0,0,0,.05-.62s-.14-.05-.2-.2l.06-.11c-.15-.44-.25-.91-.59-1.13l-.05.32-.13-.19.13-.06c-.15-.17-.13,0-.14.16a.56.56,0,0,0-.15-.21v.47c-.08-.16-.06-.36-.19-.42,0,.22.21.36.14.53-.15-.17-.19-.34-.21-.14a.35.35,0,0,1,0-.25c0,.16-.19.13-.14.38-.17-.22-.24.16-.38-.26,0,.11,0,.38-.09.42,0-.54-.28.07-.43-.48.06.48-.28.32-.37.64,0,0,0-.12,0-.1s-.18-.13-.27-.2c.11.38,0,.51,0,.76-.24-.32-.07-.46-.22-.79.1.3-.11.36,0,.6a1,1,0,0,1-.26-.38c.13.47-.06.1,0,.42-.21-.19-.17-.43-.27-.24A.35.35,0,0,1,167.26,168.58ZM164,170.35h0l.07,0Zm-.3.08.13,0c0,.09,0,.19,0,.19S163.75,170.5,163.68,170.43Zm1.08,1.74c0,.05-.07,0-.09-.05l.08-.05v0A1,1,0,0,1,164.77,172.16Z"/><path class="cls-7" d="M164.77,171.78l0,0,0-.05v.09Z"/><path class="cls-7" d="M136.45,171h0a.14.14,0,0,1,0,0Z"/><polygon class="cls-7" points="159.43 170.64 159.44 170.71 159.46 170.65 159.43 170.64"/><path class="cls-7" d="M135,169.65a.19.19,0,0,0,0-.08A.25.25,0,0,0,135,169.65Z"/><path class="cls-7" d="M134.31,169.4l-.08-.12A.41.41,0,0,0,134.31,169.4Z"/><path class="cls-7" d="M133.79,169.13l0,.11h0Z"/><path class="cls-7" d="M142.64,170.64h0C142.72,170.59,142.68,170.6,142.64,170.64Z"/><path class="cls-7" d="M139.89,170.85a.73.73,0,0,1,.11-.11S139.92,170.69,139.89,170.85Z"/><polygon class="cls-7" points="145.62 170.68 145.62 170.69 145.63 170.69 145.62 170.68"/><path class="cls-7" d="M140.12,170.76c0-.06-.08-.06-.12,0S140.08,170.8,140.12,170.76Z"/><path class="cls-7" d="M131.47,168.33l0,0,0,0Z"/><path class="cls-7" d="M131.43,168.35l0,0S131.42,168.38,131.43,168.35Z"/><path class="cls-7" d="M131.31,168.43l.08-.05S131.35,168.35,131.31,168.43Z"/><path class="cls-7" d="M132.15,168.66l0-.1Z"/><path class="cls-7" d="M132.38,168.7s-.07-.25-.16-.21l0,.08C132.26,168.43,132.28,168.85,132.38,168.7Z"/><path class="cls-7" d="M133,170.18l-.16-.13c0,.11,0,.27-.08.27C132.86,170.69,132.72,170.07,133,170.18Z"/><path class="cls-7" d="M133.5,170.48c-.11,0,0,.15-.06.21S133.55,170.6,133.5,170.48Z"/><path class="cls-7" d="M137.72,171.5l-.06.25C137.74,171.73,137.68,171.65,137.72,171.5Z"/><polygon class="cls-7" points="138.8 170.38 138.75 170.21 138.67 170.44 138.8 170.38"/><polygon class="cls-7" points="138.92 172.26 138.88 172.29 139.03 172.22 138.92 172.26"/><path class="cls-7" d="M146.21,173.23v-.32C146.15,173,146.11,173.32,146.21,173.23Z"/><path class="cls-7" d="M149.39,173.12c0,.16.11.26.17.11S149.43,173.08,149.39,173.12Z"/><polygon class="cls-7" points="158.94 173.27 158.89 173.38 159 173.28 158.94 173.27"/></g><path id="_Path_" data-name="&lt;Path&gt;" class="cls-8" d="M188.75,121.22C167,40,123,48.53,108.85,124.16l-5-71.8s54.5,1.36,75.44-18C200.88,59.47,187.49,72,188.75,121.22Z"/><g class="cls-6"><path class="cls-7" d="M142.26,149.38c0,.09,0,.28.08.24l.07-.33Z"/><path class="cls-7" d="M142.92,150a.93.93,0,0,0,.17-.75c-.11.32-.14.19-.27.56-.1,0-.17-.11-.16-.23,0,.08-.15-.07-.21.14.13.26.29.27.46.05C143,149.85,142.93,149.93,142.92,150Z"/><path class="cls-7" d="M152.58,150.51l-.06,0A.11.11,0,0,0,152.58,150.51Z"/><path class="cls-7" d="M159,150.69c-.06,0-.06,0,0,.07S159,150.72,159,150.69Z"/><path class="cls-7" d="M160.47,150.68v.08S160.5,150.72,160.47,150.68Z"/><path class="cls-7" d="M152.58,150.51l.16.1C152.75,150.51,152.66,150.53,152.58,150.51Z"/><path class="cls-7" d="M144.26,149.2a.23.23,0,0,0-.09.09l.08,0Z"/><path class="cls-7" d="M149.94,150.78h0l0,.13Z"/><path class="cls-7" d="M147.92,150.83s.06-.27.08-.39c0,.12-.06.17-.1.19A1,1,0,0,0,147.92,150.83Z"/><path class="cls-7" d="M144.71,150.33l-.06,0Z"/><path class="cls-7" d="M151.39,150.84a.44.44,0,0,0,0,.1A.3.3,0,0,0,151.39,150.84Z"/><path class="cls-7" d="M150.4,102.21h0S150.4,102.19,150.4,102.21Z"/><polygon class="cls-7" points="151.41 99.67 151.43 99.7 151.58 99.68 151.41 99.67"/><path class="cls-7" d="M160.37,147.75h0S160.39,147.78,160.37,147.75Z"/><path class="cls-7" d="M157.47,130.84c-.22.23-.37-.26-.6.07C157,130.86,157.34,131.1,157.47,130.84Z"/><path class="cls-7" d="M144.31,149.23h.08A.11.11,0,0,0,144.31,149.23Z"/><path class="cls-7" d="M156.87,130.91h0l0,0Z"/><path class="cls-7" d="M159.52,143.52l-.11.06A.29.29,0,0,0,159.52,143.52Z"/><path class="cls-7" d="M159.63,146.76l0-.08A.16.16,0,0,0,159.63,146.76Z"/><path class="cls-7" d="M158.87,141.94s.05-.07,0-.12l0,0S158.91,141.89,158.87,141.94Z"/><polygon class="cls-7" points="158.6 140.23 158.55 140.27 158.57 140.32 158.6 140.23"/><path class="cls-7" d="M151.36,107.39a1.13,1.13,0,0,1,.24-.12C151.41,107.33,151.3,107.09,151.36,107.39Z"/><path class="cls-7" d="M144.26,149.35c0-.07,0-.11.05-.12l-.06,0A.21.21,0,0,0,144.26,149.35Z"/><path class="cls-7" d="M156.67,142.22v-.28A.87.87,0,0,0,156.67,142.22Z"/><path class="cls-7" d="M153.36,119.67l0-.06S153.32,119.66,153.36,119.67Z"/><path class="cls-7" d="M156.5,141.14a.49.49,0,0,0,.17-.18l-.08,0Z"/><path class="cls-7" d="M151.6,107.27h0Z"/><path class="cls-7" d="M150.66,105.58c0,.26.38.06.59.09.15.29-.25.19-.42.32.13.18.49.27.49.42s-.08.05-.16,0c.32.16.11.6.51.78l-.09,0a2,2,0,0,1,.49-.12c0,.12.26.18,0,.26,0-.07-.1-.06-.18-.08l.12.11c-.33.16-.15-.15-.4-.11.15.22.48.45.41.65-.33.09-.18-.41-.44-.12l.08-.3c-.49.3,0-.18-.52.11,0,.39.24.39.2.77.2.05.27-.07.47,0,.42.47-.78.55-.27.86.24.06.67,0,.49.35l-.39,0c0,.36.58.12.38.53-.16,0-.17-.26-.21-.2-.26.29.24.14.27.33l-.33.09c.11.37.42.76.55,1.17-.1,0-.22-.06-.31.05a2.64,2.64,0,0,1,0,1.69l.32.15s-.12.11-.18.07c-.08.22.19,0,.31.06s-.14.18-.24.12c.3.31.69.92.44,1.35l-.1-.06c-.07.31.65.23.42.55l-.06,0c0,.65.35,1.3,0,1.85.43,0-.09.65.5.6-.23.41-.35.32-.47.86,0,.14.4.14.48.3l-.3.05.36.18-.34.18.1.14a.25.25,0,0,1,.2-.16c.18.22-.12.63-.27.66l.35.54c-.12,0-.18-.08-.27-.15.36.26-.31.11,0,.35.06,0,.18,0,.25,0a.67.67,0,0,0,0,.72h-.22c0,.44.24.89.32,1.37.07-.19.44-.21.5-.07l-.31.11c.21.06.1-.17.37,0,0,.19-.35.18-.47.09l.15.2c-.09,0-.15,0-.28,0,.21.06-.26.43.1.5l-.09,0c.07.48.22.68.3,1.07.28,0,.24.13.48.21a2.74,2.74,0,0,0-.13,1c.18.22.25,0,.43.12-.25.06-.17.4-.38.25a3,3,0,0,0,.42,1c.09-.07.13-.15.22-.13s-.07.24-.2.24l0,0c.47.53-.52,1.49.08,1.87l0,0,.35.45c0,.23-.21-.1-.34.09.51.46.07.84.42,1.23-.69.46.24,1.19-.16,1.72l.17-.05c.19.09-.08.16-.1.25.13,0,.14-.15.24-.09a9,9,0,0,1,.07,3.14c0,.38.94.07.6.6l-.35-.08c.51.69.23,1.54.68,2.23-.08,0-.18,0-.19-.09-.21.19.08.58.27.55,0,.12-.17.05-.26.14s.36.34.14.46c0,0-.08,0-.11-.06.13.08,0,.48.3.34-.09.3.21.51.08.76.33.1-.07.5.37.47-.45.05-.28.54,0,.68-.14,0-.12.17-.31.14,0,.2.15.37.37.3-.48.45.55.67-.1,1a9.23,9.23,0,0,1,.77,1.59c-.45.05-.14-.58-.6-.49.26.48.69.71.67,1.23,0,.14-.2,0-.29-.07.26.48.11,1,.43,1.4,0,0-.09,0-.14-.08s0,.22.17.17l-.07-.08c.27-.19.67.25.83.25-.6-.06-.08.47-.85.35a.29.29,0,0,0,.29.08c0,.09-.1.13-.27.07.16.28.37.2.39.4-.1,0-.14,0-.26,0,.2,0,.41.12.35.24s-.14,0-.15-.05a2.41,2.41,0,0,0,.31.38c.13.16.24.36.15.44-.51-.45-.15,0-.58-.38l0,0a.4.4,0,0,1,0,.09l.24.18c-.1,0,0,.27-.21.14l0-.15-.17.07.23.14c0,.19.35.47,0,.37,0,0-.21,0-.37-.22h0c0,.12-.11.24-.26.15s0-.41-.06-.49c0,.31-.42.09-.55.42a.6.6,0,0,0,0-.31l-.09.25c-.1-.08-.12-.12-.1-.28-.3,0,.1.47-.26.27,0,0,0-.06.07-.1-.36-.11-.7.16-1,0-.1-.38.29-.09.18-.41-.48.07-1,.45-1.46.36l.09,0c-.06.53-.35-.26-.58,0,.06,0,.08-.29.06-.24-.32-.09-.65.13-1.13.3l.06-.14c-.19-.12-.49-.07-.7-.13-.06.14-.18.11-.11.31-.63-.78-1.19.42-1.75-.23.07,0,.16-.12.11-.12l-.47.13c0,.23.06.14.16.32a.39.39,0,0,1-.31.24c.21-.15,0-.37-.09-.5a2.14,2.14,0,0,1,0,.22c-.25-.41,0,.46-.38.19l0-.12c-.13.06-.24.22-.38.19-.06-.27.13-.12.14-.34-.19,0-.38.51-.55.24.08-.07.2-.08.28-.15-.19-.31-.21-.23-.35-.28h0l-.32-.14.08.08c-.24.7-.49.13-.81.58.31-.43.05-.25.08-.55-.08-.08-.21-.18-.17-.26-.15.24-.25-.19-.47.16,0-.1-.16,0-.13-.25-.2.08,0,.17,0,.29-.31.33-.72-.4-1.16.05-.38.19-.45.52-.8.68-.12-.16.1-.36.1-.36a.39.39,0,0,0-.52,0c0-.09,0-.16-.06-.27s-.1.36-.29.21a1.69,1.69,0,0,1,.14-.39c-.17.09-.34.27-.52.36,0-.17.11-.26.17-.37-.2.08-.51.15-.58.42l.13.1c-.07,0,0-.23,0-.28.17-.21.25.09.25.19l-.13.06c.13.57.5-.09.76-.06l-.11.42.26-.35c.06.11.09.34,0,.4.18.21.16-.15.32.08a.06.06,0,0,1,0,.07l.18-.12c0,.09,0,.29-.08.23.32.24.51-.31.63,0l0,0c.44-.14,0-.31.37-.66l.22.75,0-.31a.13.13,0,0,1,.12.16c.17-.21,0-.13.07-.33.22.28.6-.13.65.36.08-.23-.21-.18,0-.34.07.52.27-.09.47.15-.06.27-.25.13-.05.37.12-.46.39.1.56,0,0-.36.37-.15.65-.27,0,.12.53.2.8.33v.06c.05-.37.32-.3.52-.37a.48.48,0,0,1-.15.4h.19a.33.33,0,0,1,.22-.22l0,.27c.25,0,.5-.32.82-.14,0-.26-.25-.71.08-.88,0,.14,0,.38-.06.43s.1-.11.16-.06l-.13.23c.15.1.08-.19.19-.17,0,.2.09.14.07.3s-.1-.08-.15,0a.53.53,0,0,1,.34.3c0-.11,0-.27.1-.29.25,0,.08.24.23.34.06-.14.22,0,.22-.29.07,0,.09.14.11.22.13-.13.6,0,.45-.35l0,0h0c.42-.29.87.17,1.29,0v.1c.25-.11.55-.07.73-.28.07,0,.17.18.14.3.19-.07.21-.19.49,0-.19.17.07.15-.2.13.25.09.3.24.57,0-.09.25.19.32.3.24l-.17-.18a.77.77,0,0,1,.37,0l-.06.33c.51.4.91-.69,1.3,0,.13-.23-.27-.16-.16-.44a.71.71,0,0,1,.33.28.9.9,0,0,0,.34.25c.59.18.36-.49.88-.36-.13-.12-.3-.44-.09-.55.27,0,.72.5.57.59a.17.17,0,0,1-.16-.07c-.08,0-.2.09,0,.22l0-.12c.25.12.75.11.8.3.2-.11-.05-.19-.3-.26a3.22,3.22,0,0,0,1,.08,1,1,0,0,1,0-.24c-.06,0-.21,0-.22-.12.06-.54-.3-.48-.43-.91.16-.13.49.34.25-.19.09-.23.33.07.46.25-.32-.56,0-.84,0-1.16l.14.29a1.38,1.38,0,0,1-.13-.44l-.22.14c0-.15,0-.28.1-.28-.18-.14-.38.11-.64-.14.09-.22-.19-.35.11-.46,0,.38.31-.09.4.21a.22.22,0,0,1,0-.22.08.08,0,0,1,.09,0c.22-.39-.38-.1-.43-.46.18,0,.32-.14.27-.19,0,.14-.28.12-.44,0,.1-.25-.14-.23-.14-.35l0,.15c-.18,0-.18-.14-.26-.29.13,0,.12.13.17.06-.34-.13.26-.45,0-.66.1-.13.33-.06.39-.18-.27-.24.19-.34,0-.6-.22.12-.16.13-.42,0l.24.45-.39-.25c0,.14.2.28.17.37-.22-.12-.15-.11-.34,0,.32-.25-.27-.36-.07-.62l.58-.09c.21-.38-.4-.56-.32-1l-.08.16c-.24,0-.08-.27-.19-.4.2,0,.25-.12.37-.2-.14,0,0-.33-.43-.31l.23-.24c0-.38-.62-.32-.61-.68.23.07.34-.11.53.1,0-.12,0-.22-.13-.21.11-.09-.31-.28-.15-.41-.09,0-.3,0-.3-.15a.2.2,0,0,1,.1,0c-.1,0-.16-.18-.36,0,.55-.45-.2-1,.27-1.38a4.63,4.63,0,0,1-.27-.76c.06,0,.1,0,.08,0,.13-.34-.59-.1-.45-.49.29-.23.2.16.3,0,.63-.15-.16-.42.18-.72l0,.05c.19-.22-.31-.41-.32-.72a.21.21,0,0,0,.1,0,1.5,1.5,0,0,1-.67-.8c.27.05.15.11.4,0-.06-.12-.4.1-.52-.14.12-.11.21-.31.48-.38l.05.24c.33-.18-.06-.31,0-.45h.16c-.11-.37-.5-.31-.53-.72l-.11.06c-.42-.16.19-.22-.13-.39l.38-.13a3.52,3.52,0,0,1-.57-.7,2.34,2.34,0,0,1,.71.54c0-.14-.11-.48-.31-.53,0,.05.15.11.1.18a.78.78,0,0,1-.56-.62c.76-.07.07-.78.63-1.08-.36-.46,0-1-.18-1.61-.55.3,0-.17-.64,0-.06-.13-.06-.19,0-.2l.29-.47c.16-.13.15.11.29.08,0-.31.24-.17.36-.39-.21.08-.33-.06-.27-.24l-.24.29c-.39-.37.45-.44.06-.82l.21.1c-.15-.2-.12-.8-.64-.94.06,0,.22-.13.28,0,0-.53-.7-1.08-.47-1.53l.15,0c-.06-.09-.3-.12-.18-.27s.15,0,.16,0-.3-.22-.23-.36l.18.08c.11-.54-.53-.72-.7-1.12.43-.07.51-.49.55-.7h.06c0-.6-.52-.95-.78-1.47.42-.41,0-1.18.19-1.77-.07.1-.34,0-.4,0s-.36-.31,0-.35v0c.38-.16.23-.41.21-.61l-.53,0c.67-.66-.5-1.37.13-1.77-.15-.11-.18-.27-.33-.38l.28,0a2.33,2.33,0,0,0-.12-1l.21.06c0-.25-.86-.19-.91-.42l.41-.14c-.08-.44.22-.94-.23-1.31.06,0,.18,0,.21.06,0-.21.16-.84-.41-.68.37-.06,0-.46-.24-.67h.28c-.38-.14-.48-.13-.62-.4,0-.07.21-.09.15,0,.11-.24-.29-.13-.18-.42l.19.07c0-.23-.11-.2-.33-.29s0-.44.24-.51c-.16,0-.38-.1-.33-.24a.21.21,0,0,1,.19,0c.13-.41-.41-.51-.18-.82a.29.29,0,0,0,.16-.07,1.85,1.85,0,0,1,0,.53c.25,0,.26-.29.64-.15-.22-.16-.69-.43-.61-.69l.08,0,0,0a.13.13,0,0,0-.06-.14.44.44,0,0,0,0-.21c.21-.06.07-.3.06-.42-.28.05-.26-.11-.46.07,0,0,0,0,.06.1s0,0,0,0h0l.07.3c-.16-.07-.29-.15-.16-.31l-.47-.1c.36-.23.52-.58.75-.66-.21-.35-.24-.85-.8-1-.08-.09.13-.14.21-.2s.07.13.15.15c-.17-.19-.15-.61-.52-.61.12-.29.36.1.24-.26l.12,0c.47-.81-1.12-1-.49-1.93,0,.06-.05.09-.11.11.19-1-.61-1.82-.23-2.79.07-.27-.17-.26-.37-.39l.29-.1-.39-.21c-.31-.34.63-.77.08-1.17l-.19.09c0-.18-.2-.52,0-.53,0,0-.22,0-.12-.11l.16,0-.33-.38c.06-.34.63,0,.58-.53-.09-.17-.53-.43-.63-.35a.26.26,0,0,1-.22.23l-.11-.15c-.46,0-1,0-1.21.44l.33.23-.21.12-.05-.23c-.19.17,0,.22.15.29a.41.41,0,0,0-.23.15l.48.2c-.17.06-.38-.06-.45.13.22.09.38-.19.55,0-.19.17-.36.15-.16.28a.24.24,0,0,1-.26,0c.16.12.12.36.37.39-.24.18.14.46-.3.51.11,0,.38.19.42.31-.56-.15,0,.48-.52.51.5.1.31.59.61.85,0,0-.12,0-.1-.06,0,.18-.15.25-.22.37.39,0,.52.21.78.32-.34.27-.47-.05-.82.07.31-.06.37.31.62.2-.21.2-.09.16-.4.29.49,0,.11.14.42.22-.2.27-.44.13-.26.36C150.86,105.78,150.66,105.58,150.66,105.58Zm1.8,5.92h0l0-.12Zm.09.51a1.2,1.2,0,0,0,0-.22c.09,0,.19,0,.2,0S152.61,111.92,152.54,112Zm1.75-1.38c.05.07,0,.11-.05.13a.76.76,0,0,0-.06-.14h.11Z"/><path class="cls-7" d="M153.91,110.54l0,0-.05.06h.09Z"/><path class="cls-7" d="M152.51,150.46h0l0,0Z"/><polygon class="cls-7" points="153.13 119.12 153.2 119.11 153.13 119.08 153.13 119.12"/><path class="cls-7" d="M149.67,149.5a.14.14,0,0,0,0-.07A.19.19,0,0,0,149.67,149.5Z"/><path class="cls-7" d="M148.44,149.44l-.17-.1A.66.66,0,0,0,148.44,149.44Z"/><path class="cls-7" d="M147.5,149.3a.77.77,0,0,0,0,.12h0Z"/><path class="cls-7" d="M157.79,147.12l0,0C157.7,147,157.73,147.06,157.79,147.12Z"/><path class="cls-7" d="M157.88,149.62a.85.85,0,0,1,0-.13C157.86,149.47,157.82,149.46,157.88,149.62Z"/><polygon class="cls-7" points="156.67 142.25 156.68 142.25 156.67 142.22 156.67 142.25"/><path class="cls-7" d="M158.06,149.5c-.08-.06-.12,0-.14,0S158,149.54,158.06,149.5Z"/><path class="cls-7" d="M143.42,149.17h0a.14.14,0,0,1,0,0Z"/><path class="cls-7" d="M143.36,149.2l-.05,0S143.36,149.23,143.36,149.2Z"/><path class="cls-7" d="M143.21,149.31l.11-.07S143.23,149.23,143.21,149.31Z"/><path class="cls-7" d="M144.66,149.3v-.1A.34.34,0,0,0,144.66,149.3Z"/><path class="cls-7" d="M145,149.27c-.09,0-.23-.22-.35-.15v.08C144.74,149,145,149.44,145,149.27Z"/><path class="cls-7" d="M146.62,150.53l-.32-.08c.06.11.13.25,0,.28C146.69,151.05,146.21,150.49,146.62,150.53Z"/><path class="cls-7" d="M147.61,150.69c-.17.05,0,.16,0,.22C147.71,150.81,147.74,150.78,147.61,150.69Z"/><path class="cls-7" d="M154.73,150.69l0,.26C154.84,150.91,154.71,150.85,154.73,150.69Z"/><polygon class="cls-7" points="156.09 149.37 155.96 149.21 155.9 149.44 156.09 149.37"/><polygon class="cls-7" points="156.89 151.19 156.84 151.22 157.06 151.13 156.89 151.19"/><path class="cls-7" d="M158.89,140.49l-.3.09C158.66,140.66,159,140.63,158.89,140.49Z"/><path class="cls-7" d="M157.76,135.45c.15-.08.22-.24.06-.3C157.82,135.26,157.71,135.4,157.76,135.45Z"/><polygon class="cls-7" points="155.84 120.08 155.96 120.17 155.84 119.99 155.84 120.08"/></g><circle class="cls-9" cx="133.25" cy="113.8" r="5.11" transform="translate(18.28 246.04) rotate(-89.49)"/><circle class="cls-9" cx="168.68" cy="113.8" r="5.11" transform="translate(53.4 281.47) rotate(-89.49)"/><path class="cls-10" d="M103.22,221.55h89.12a31.19,31.19,0,0,1,31.19,31.19V519.61a0,0,0,0,1,0,0H72a0,0,0,0,1,0,0V252.74A31.19,31.19,0,0,1,103.22,221.55Z"/><polygon id="_Clipping_Path_2" data-name="&lt;Clipping Path&gt;" class="cls-2" points="147.74 316.68 107.19 220.55 188.29 220.55 147.74 316.68"/><g class="cls-11"><path class="cls-12" d="M137.84,219.09H158.3a0,0,0,0,1,0,0v18.22a7.87,7.87,0,0,1-7.87,7.87h-4.72a7.87,7.87,0,0,1-7.87-7.87V219.09A0,0,0,0,1,137.84,219.09Z"/><polygon class="cls-12" points="156.73 239.38 139.41 239.38 135.95 363.06 160.19 363.06 156.73 239.38"/></g></g></g></g></svg>