<?xml version="1.0" encoding="UTF-8"?>
<svg width="20px" height="20px" viewBox="0 0 20 20" version="1.1" xmlns="http://www.w3.org/2000/svg" xmlns:xlink="http://www.w3.org/1999/xlink">
    <!-- Generator: Sketch 48.2 (47327) - http://www.bohemiancoding.com/sketch -->
    <title>Icon/tick/passed</title>
    <desc>Created with Sketch.</desc>
    <defs>
        <polygon id="path-1" points="0.000196721313 0.00064516129 19.6754098 0.00064516129 19.6754098 19.3547419 0.000196721313 19.3547419 0.000196721313 0.00064516129"></polygon>
    </defs>
    <g id="Icons" stroke="none" stroke-width="1" fill="none" fill-rule="evenodd">
        <g id="Icon/tick/passed">
            <g id="Page-1">
                <path d="M8.6375082,13.6686774 C8.33095082,13.6686774 8.04308197,13.5512581 7.82603279,13.3377097 L5.49685246,11.0464194 C5.04963934,10.6060968 5.04963934,9.88996774 5.49685246,9.44964516 C5.71390164,9.23641935 6.00177049,9.119 6.30832787,9.119 C6.61488525,9.119 6.9027541,9.23641935 7.11980328,9.44964516 L8.6322623,10.9377097 L11.9857049,7.32706452 C12.2224262,7.09287097 12.510623,6.97512903 12.8171803,6.97512903 C13.1240656,6.97512903 13.4122623,7.09287097 13.6289836,7.30641935 C14.0758689,7.74609677 14.0761967,8.46190323 13.6293115,8.90222581 L9.46603279,13.3202903 C9.23193443,13.5512581 8.94406557,13.6686774 8.6375082,13.6686774" id="Fill-1" fill="#FFFFFF"></path>
                <path d="M8.28980328,12.8816129 L5.96062295,10.59 C5.76881967,10.4012903 5.76881967,10.0948387 5.96062295,9.90580645 C6.1527541,9.71677419 6.46390164,9.71677419 6.65603279,9.90580645 L8.28980328,11.5132258 C8.48193443,11.7022581 8.79308197,11.7022581 8.98521311,11.5132258 L12.4698033,7.76225806 C12.6616066,7.57322581 12.973082,7.57322581 13.1648852,7.76225806 C13.3570164,7.95129032 13.3570164,8.25741935 13.1648852,8.44645161 L8.98521311,12.8816129 C8.79308197,13.0706452 8.48193443,13.0706452 8.28980328,12.8816129" id="Fill-3" fill="#FFFFFF"></path>
                <g id="Group-7">
                    <mask id="mask-2" fill="white">
                        <use xlink:href="#path-1"></use>
                    </mask>
                    <g id="Clip-6"></g>
                    <path d="M9.83757377,0.971193548 C4.9615082,0.971193548 0.994622951,4.87667742 0.994622951,9.67764516 C0.994622951,14.4782903 4.9615082,18.3840968 9.83757377,18.3840968 C14.7139672,18.3840968 18.6811803,14.4782903 18.6811803,9.67764516 C18.6811803,4.87667742 14.7139672,0.971193548 9.83757377,0.971193548 M9.83757377,19.3547419 C4.41331148,19.3547419 0.000196721313,15.0134516 0.000196721313,9.67764516 C0.000196721313,4.34183871 4.41331148,0.000548387097 9.83757377,0.000548387097 C15.2624918,0.000548387097 19.6756066,4.34183871 19.6756066,9.67764516 C19.6756066,15.0134516 15.2624918,19.3547419 9.83757377,19.3547419" id="Fill-5" fill="#FFFFFF" mask="url(#mask-2)"></path>
                </g>
            </g>
        </g>
    </g>
</svg>