<?xml version="1.0" encoding="utf-8"?>
<!-- Generator: Adobe Illustrator 19.1.0, SVG Export Plug-In . SVG Version: 6.00 Build 0)  -->
<svg version="1.1" id="Layer_1" xmlns="http://www.w3.org/2000/svg" xmlns:xlink="http://www.w3.org/1999/xlink" x="0px" y="0px"
	 viewBox="219 -73.6 173 176.6" style="enable-background:new 219 -73.6 173 176.6;" xml:space="preserve">
<style type="text/css">
	.st0{fill-rule:evenodd;clip-rule:evenodd;fill:#82BA65;}
</style>
<g id="Shape_1_6_">
	<g>
		<path class="st0" d="M305.3-63.3c-43.1,0-78,34.9-78,78c0,43.1,34.9,78,78,78c43.1,0,78-34.9,78-78
			C383.3-28.4,348.4-63.3,305.3-63.3z M305.3,75.6c-33.7,0-60.9-27.3-60.9-60.9s27.3-60.9,60.9-60.9c33.7,0,60.9,27.3,60.9,60.9
			S339,75.6,305.3,75.6z M334.9,9.5h-24.4v-39.3c0-2.9-2.3-5.2-5.2-5.2c-2.9,0-5.2,2.3-5.2,5.2v44.5c0,2.9,2.3,5.2,5.2,5.2h29.6
			c2.9,0,5.2-2.3,5.2-5.2S337.7,9.5,334.9,9.5z"/>
	</g>
</g>
</svg>
