<svg id="Layer_1" data-name="Layer 1" xmlns="http://www.w3.org/2000/svg" viewBox="0 0 128 128"><defs><style>.cls-1{fill:#231f20;}</style></defs><title>flag and tips icons</title><path class="cls-1" d="M55.36,82.48a3.5,3.5,0,0,1-2.48-6L64,65.43H55.5a3.5,3.5,0,0,1-2.47-6L70.16,42.32a3.5,3.5,0,1,1,4.95,4.95L63.95,58.43h8.47a3.5,3.5,0,0,1,2.48,6L57.84,81.46A3.49,3.49,0,0,1,55.36,82.48Z"/><path class="cls-1" d="M20,65.38H8.68a3.5,3.5,0,0,1,0-7H20a3.5,3.5,0,1,1,0,7Z"/><path class="cls-1" d="M32.92,34.28a3.49,3.49,0,0,1-2.47-1l-8-8a3.5,3.5,0,1,1,4.95-4.95l8,8a3.5,3.5,0,0,1-2.47,6Z"/><path class="cls-1" d="M64,21.43a3.5,3.5,0,0,1-3.5-3.5V6.61a3.5,3.5,0,0,1,7,0V17.93A3.5,3.5,0,0,1,64,21.43Z"/><path class="cls-1" d="M95.14,34.35a3.5,3.5,0,0,1-2.48-6l8-8a3.5,3.5,0,1,1,5,4.95l-8,8A3.49,3.49,0,0,1,95.14,34.35Z"/><path class="cls-1" d="M119.32,65.47H108a3.5,3.5,0,0,1,0-7h11.32a3.5,3.5,0,1,1,0,7Z"/><path class="cls-1" d="M88.1,36.18h0a34.5,34.5,0,0,0-25.73-9.47,35.46,35.46,0,0,0-33.52,32A35,35,0,0,0,39.76,87.25,15.44,15.44,0,0,1,45,98.56v17.88a6.69,6.69,0,0,0,6.84,6.84H76.2A6.81,6.81,0,0,0,83,116.68V98.56a15.14,15.14,0,0,1,5-11,35.08,35.08,0,0,0,0-51.35ZM83.28,82.41a22.12,22.12,0,0,0-7.23,15.71H52a22.33,22.33,0,0,0-7.48-16,28.05,28.05,0,0,1-8.72-22.87A28.42,28.42,0,0,1,62.73,33.7,27.59,27.59,0,0,1,83.3,41.27a28.08,28.08,0,0,1,0,41.14Z"/></svg>