<?xml version="1.0" encoding="utf-8"?>
<!-- Generator: Adobe Illustrator 18.0.0, SVG Export Plug-In . SVG Version: 6.00 Build 0)  -->
<!DOCTYPE svg PUBLIC "-//W3C//DTD SVG 1.1//EN" "http://www.w3.org/Graphics/SVG/1.1/DTD/svg11.dtd">
<svg version="1.1" id="Layer_1" xmlns="http://www.w3.org/2000/svg" xmlns:xlink="http://www.w3.org/1999/xlink" x="0px" y="0px"
	 width="21px" height="21px" viewBox="0 0 21 21" enable-background="new 0 0 21 21" xml:space="preserve">
<g id="Shape_3_1_">
	<g>
		<path fill-rule="evenodd" clip-rule="evenodd" fill="#FCFCFC" d="M10.5,2.5c-2.2,0-4.2,0.9-5.6,2.3L2.5,2.5v6.1c0,0.6,0.4,1,1,1h1
			v0h5.1L6.3,6.3c1.1-1.1,2.6-1.7,4.2-1.7c3.3,0,6,2.7,6,6c0,3.3-2.7,6-6,6c-1.9,0-3.6-0.9-4.7-2.3l-1.4,1.4
			c1.5,1.7,3.7,2.8,6.1,2.8c4.4,0,8-3.6,8-8C18.5,6.1,14.9,2.5,10.5,2.5z"/>
	</g>
</g>
</svg>
