<?xml version="1.0" encoding="UTF-8"?>
<svg width="20px" height="20px" viewBox="0 0 20 20" version="1.1" xmlns="http://www.w3.org/2000/svg" xmlns:xlink="http://www.w3.org/1999/xlink">
    <!-- Generator: Sketch 48.2 (47327) - http://www.bohemiancoding.com/sketch -->
    <title>Icon/drag-indicator-active</title>
    <desc>Created with Sketch.</desc>
    <defs></defs>
    <g id="Icons" stroke="none" stroke-width="1" fill="none" fill-rule="evenodd">
        <g id="Icon/drag-indicator-active" fill="#333333">
            <path d="M15.0876142,8.73550161 L11.3753972,5.07552442 C11.0332436,4.73800519 11.0332436,4.19129183 11.3753972,3.85425684 C11.7175508,3.51673761 12.2717709,3.51673761 12.6139244,3.85425684 L17.8198624,8.98968216 C18.162016,9.32671715 18.162016,9.87391476 17.8198624,10.211434 L12.6139244,15.3468593 C12.4504565,15.5095659 12.2280812,15.6010883 11.995888,15.6010883 C11.5123568,15.6049623 11.1166957,15.2219239 11.1122776,14.7449419 C11.1103141,14.5100828 11.2055476,14.2844243 11.3753972,14.120265 L15.0866494,10.4628059 L2.9522337,10.4628059 C2.46870245,10.4628059 2.07647761,10.0763779 2.07647761,9.59891164 C2.07647761,9.12192966 2.46870245,8.73550161 2.9522337,8.73550161 L15.0876142,8.73550161 Z" id="Combined-Shape" transform="translate(10.076478, 9.601117) rotate(-90.000000) translate(-10.076478, -9.601117) "></path>
        </g>
    </g>
</svg>