<?xml version="1.0" encoding="UTF-8"?>
<svg width="20px" height="20px" viewBox="0 0 20 20" version="1.1" xmlns="http://www.w3.org/2000/svg" xmlns:xlink="http://www.w3.org/1999/xlink">
    <!-- Generator: Sketch 48.2 (47327) - http://www.bohemiancoding.com/sketch -->
    <title>Icon/cross/white</title>
    <desc>Created with Sketch.</desc>
    <defs></defs>
    <g id="Icons" stroke="none" stroke-width="1" fill="none" fill-rule="evenodd">
        <g id="Icon/cross/white" fill="#FFFFFF">
            <g id="Group-11">
                <path d="M9.99986344,1.00303343 C5.04335619,1.00303343 1.01102825,5.03883463 1.01102825,10 C1.01102825,14.960832 5.04335619,18.9969666 9.99986344,18.9969666 C14.956704,18.9969666 18.9893652,14.960832 18.9893652,10 C18.9893652,5.03883463 14.956704,1.00303343 9.99986344,1.00303343 M9.99986344,20 C4.48611573,20 0.000196721311,15.5138505 0.000196721311,10 C0.000196721311,4.48614954 4.48611573,0 9.99986344,0 C15.5142777,0 20.0001967,4.48614954 20.0001967,10 C20.0001967,15.5138505 15.5142777,20 9.99986344,20" id="Fill-9"></path>
                <g id="Group-2" transform="translate(6.000000, 7.326922)">
                    <path d="M6.39711475,6.59818501 C6.09055738,6.59818501 5.80268852,6.49162763 5.58563934,6.29812646 L0.572852459,1.82213115 C0.125311475,1.42283372 0.125311475,0.77265808 0.572852459,0.373360656 C0.78957377,0.179859485 1.07777049,0.0730093677 1.384,0.0730093677 C1.69055738,0.0730093677 1.9787541,0.179859485 2.19547541,0.373360656 L7.20859016,4.84906323 C7.65580328,5.2486534 7.65580328,5.8985363 7.20859016,6.29812646 C6.99154098,6.49162763 6.70367213,6.59818501 6.39711475,6.59818501" id="Fill-1"></path>
                    <path d="M6.04940984,5.88407494 L1.03629508,1.40807963 C0.844491803,1.2368267 0.844491803,0.958723653 1.03629508,0.787177986 C1.22842623,0.615632319 1.53990164,0.615632319 1.73203279,0.787177986 L6.74481967,5.2631733 C6.93695082,5.43471897 6.93695082,5.71252927 6.74481967,5.88407494 C6.55268852,6.05562061 6.24154098,6.05562061 6.04940984,5.88407494" id="Fill-3"></path>
                    <path d="M1.38416393,6.59818501 C1.07760656,6.59818501 0.789737705,6.49162763 0.572688525,6.29812646 C0.12547541,5.8985363 0.12547541,5.2486534 0.572688525,4.84906323 L5.58580328,0.373360656 C5.80252459,0.179859485 6.09072131,0.0730093677 6.39727869,0.0730093677 C6.7035082,0.0730093677 6.99170492,0.179859485 7.20842623,0.373360656 C7.65563934,0.77265808 7.65563934,1.42283372 7.20842623,1.82213115 L2.19563934,6.29812646 C1.97859016,6.49162763 1.69072131,6.59818501 1.38416393,6.59818501" id="Fill-5"></path>
                    <path d="M1.03642623,5.88407494 L1.03642623,5.88407494 C0.844295082,5.71252927 0.844295082,5.43471897 1.03642623,5.2631733 L6.04954098,0.787177986 C6.24134426,0.615632319 6.55281967,0.615632319 6.74495082,0.787177986 C6.93708197,0.958723653 6.93708197,1.2368267 6.74495082,1.40807963 L1.73183607,5.88407494 C1.53970492,6.05562061 1.22855738,6.05562061 1.03642623,5.88407494" id="Fill-7"></path>
                </g>
            </g>
        </g>
    </g>
</svg>