<?xml version="1.0" encoding="utf-8"?>
<!-- Generator: Adobe Illustrator 20.1.0, SVG Export Plug-In . SVG Version: 6.00 Build 0)  -->
<svg version="1.1" id="Layer_1" xmlns="http://www.w3.org/2000/svg" xmlns:xlink="http://www.w3.org/1999/xlink" x="0px" y="0px"
	 viewBox="0 0 128 128" style="enable-background:new 0 0 128 128;" xml:space="preserve">
<style type="text/css">
	.st0{fill:#666666;}
</style>
<g>
	<path class="st0" d="M115.6,49.2c-17.9,25.6-51.5-7-69.4,18.6c-3.9-14.7-7.9-29.4-11.8-44.1c17.9-25.6,51.5,7,69.4-18.6
		C107.7,19.9,111.6,34.5,115.6,49.2z"/>
	<g>
		<path class="st0" d="M27.2,12.8c0.7,2.8-0.1,5.6-2,7l0,0L18,21.8l0,0c-2.2,0.6-4.5-2.3-5.3-5.1C11.6,12.5,14,8.3,18,7.2
			S26.1,8.6,27.2,12.8z"/>
		<path class="st0" d="M49.4,122.7L49.4,122.7c-2.3,0.6-4.6-0.7-5.2-3l-24.9-93l8.2-2.2l24.9,93C53,119.8,51.7,122.1,49.4,122.7z"/>
	</g>
</g>
</svg>
