<?xml version="1.0" encoding="utf-8"?>
<!-- Generator: Adobe Illustrator 18.0.0, SVG Export Plug-In . SVG Version: 6.00 Build 0)  -->
<!DOCTYPE svg PUBLIC "-//W3C//DTD SVG 1.1//EN" "http://www.w3.org/Graphics/SVG/1.1/DTD/svg11.dtd">
<svg version="1.1" id="Layer_1" xmlns="http://www.w3.org/2000/svg" xmlns:xlink="http://www.w3.org/1999/xlink" x="0px" y="0px"
	 viewBox="0 0 30 30" enable-background="new 0 0 30 30" xml:space="preserve">
<g id="Shape_3_13_">
	<g>
		<path fill="#999999" d="M25.6,4.4c-5.9-5.9-15.4-5.9-21.2,0c-5.9,5.9-5.9,15.4,0,21.2c5.9,5.9,15.4,5.9,21.2,0
			C31.5,19.7,31.5,10.3,25.6,4.4z M22.2,16.4h-5.7v5.7c0,0.4-0.3,0.8-0.8,0.8h-1.5c-0.4,0-0.8-0.3-0.8-0.8v-5.7H7.8
			c-0.4,0-0.8-0.3-0.8-0.8l0-1.5c0-0.4,0.3-0.8,0.8-0.8h5.7V7.7c0-0.4,0.3-0.8,0.8-0.8h1.5c0.4,0,0.8,0.3,0.8,0.8v5.7h5.7
			c0.4,0,0.8,0.3,0.8,0.8l0,1.5C23,16.1,22.6,16.4,22.2,16.4z"/>
	</g>
</g>
</svg>
