<?xml version="1.0"?>
<!--Icons from directory ""-->
<svg xmlns="http://www.w3.org/2000/svg" width="32" height="128" viewBox="0 0 32 128"><svg xmlns:xlink="http://www.w3.org/1999/xlink" id="arrow-left-24-white" xml:space="preserve" viewBox="0 0 14 14" version="1.1" y="0" x="0px" enable-background="new 0 0 14 14" width="32" height="32"><path d="m9 12.8l1.8-1.8-4.1-4 4.1-4.1-1.8-1.7-5.8 5.8 5.8 5.8z" fill="#fff"/></svg><svg xmlns:xlink="http://www.w3.org/1999/xlink" id="arrow-left-24" xml:space="preserve" viewBox="0 0 24 24" version="1.1" y="32" x="0px" enable-background="new 0 0 24 24" width="32" height="32"><path d="m15.5 22l3-3-7-7 7-7-3-3-10 10 10 10z" fill="#5674B9"/></svg><svg xmlns:xlink="http://www.w3.org/1999/xlink" id="arrow-right-24-white" xml:space="preserve" viewBox="0 0 14 14" version="1.1" y="64" x="0px" enable-background="new 0 0 14 14" width="32" height="32"><path d="m5 12.8l-1.8-1.8 4.1-4-4.1-4.1 1.8-1.7 5.8 5.8-5.8 5.8z" fill="#fff"/></svg><svg xmlns:xlink="http://www.w3.org/1999/xlink" id="arrow-right-24" xml:space="preserve" viewBox="0 0 24 24" version="1.1" y="96" x="0px" enable-background="new 0 0 24 24" width="32" height="32"><path d="m8.5 22l-3-3 7-7-7-7 3-3 10 10-10 10z" fill="#5674B9"/></svg></svg>
