<?xml version="1.0" encoding="utf-8"?>
<!-- Generator: Adobe Illustrator 17.1.0, SVG Export Plug-In . SVG Version: 6.00 Build 0)  -->
<!DOCTYPE svg PUBLIC "-//W3C//DTD SVG 1.1//EN" "http://www.w3.org/Graphics/SVG/1.1/DTD/svg11.dtd">
<svg version="1.1" id="Layer_1" xmlns="http://www.w3.org/2000/svg" xmlns:xlink="http://www.w3.org/1999/xlink" x="0px" y="0px"
width="24px" height="24px" viewBox="0 0 24 24" enable-background="new 0 0 24 24" xml:space="preserve">
<path fill="#00A651" d="M21.7,2.2c-0.3-0.3-0.8-0.3-1.1,0L9.4,13.4c-0.3,0.3-0.8,0.3-1.1,0l-4.9-5C3.3,8.2,3.1,8.1,2.9,8.1
	c-0.2,0-0.4,0.1-0.5,0.2l-2.2,1.9C0.1,10.5,0,10.6,0,10.8c0,0.2,0.1,0.4,0.2,0.5l4.9,5.2c0.3,0.3,0.8,0.8,1.1,1.1l2.1,2.1
	c0.3,0.3,0.8,0.3,1.1,0L23.8,5.4c0.3-0.3,0.3-0.8,0-1.1L21.7,2.2z"/>
</svg>
