<svg id="Layer_1" data-name="Layer 1" xmlns="http://www.w3.org/2000/svg" width="30" height="30" viewBox="0 0 30 30"><title>icon-results</title><g id="Shape_5" data-name="Shape 5"><path d="M8.88,20.25a2.63,2.63,0,0,0,2.62-2.62,2.6,2.6,0,0,0-.37-1.33l3.93-4.94a2.52,2.52,0,0,0,2.24-.28L22.16,15a2.57,2.57,0,0,0-.16.89,2.63,2.63,0,1,0,2.63-2.62,2.59,2.59,0,0,0-1.35.39l-4.91-4a2.58,2.58,0,0,0,.14-0.81,2.63,2.63,0,1,0-4.83,1.42L9.79,15.17A2.62,2.62,0,1,0,8.88,20.25ZM27.25,22H4.5V6.25a1.75,1.75,0,0,0-3.5,0v17.5A1.75,1.75,0,0,0,2.75,25.5h24.5A1.75,1.75,0,0,0,27.25,22Z" fill="#676868" fill-rule="evenodd"/></g></svg>