<svg id="Layer_1" data-name="Layer 1" xmlns="http://www.w3.org/2000/svg" xmlns:xlink="http://www.w3.org/1999/xlink" viewBox="0 0 300 300"><defs><style>.cls-1{fill:#e6e7e8;}.cls-2{fill:#892e42;}.cls-3{fill:#3e3d38;}.cls-4{fill:#44599d;}.cls-5{clip-path:url(#clip-path);}.cls-6{fill:#a7a9ac;}.cls-7{fill:#d1d3d4;}.cls-8{fill:#939598;}.cls-9{clip-path:url(#clip-path-2);}.cls-10{clip-path:url(#clip-path-3);}.cls-11{fill:#7e94d4;}</style><clipPath id="clip-path"><circle class="cls-1" cx="150" cy="149.99" r="132.53"/></clipPath><clipPath id="clip-path-2"><circle class="cls-2" cx="401" cy="-209.47" r="132.53"/></clipPath><clipPath id="clip-path-3"><path id="_Clipping_Path_" data-name="&lt;Clipping Path&gt;" class="cls-3" d="M472.5-92.37C472.5-108,460.24-122,444.6-122H359.7c-15.65,0-29.21,14-29.21,29.63C330.5-77.42,292.24,204,292.24,204H510.75Z"/></clipPath></defs><title>avatars</title><circle class="cls-4" cx="-96" cy="-209.01" r="132.53"/><circle class="cls-1" cx="150" cy="149.99" r="132.53"/><g class="cls-5"><ellipse class="cls-6" cx="150" cy="127" rx="58.85" ry="78.61"/><ellipse class="cls-7" cx="109.74" cy="147.66" rx="14.09" ry="10.57" transform="matrix(0.01, -1, 1, 0.01, -38.89, 256.09)"/><ellipse class="cls-7" cx="189.31" cy="148.36" rx="14.09" ry="10.57" transform="translate(39.28 336.35) rotate(-89.49)"/><path class="cls-7" d="M189.78,299.42H110.22V84a28,28,0,0,1,28.2-27.7l23.67.21a28,28,0,0,1,27.7,28.2Z"/><circle class="cls-6" cx="133.86" cy="113.74" r="5.11" transform="translate(18.94 246.59) rotate(-89.49)"/><circle class="cls-6" cx="169.29" cy="113.74" r="5.11" transform="translate(54.06 282.03) rotate(-89.49)"/><path class="cls-6" d="M103.83,221.49H193a31.19,31.19,0,0,1,31.19,31.19V519.55a0,0,0,0,1,0,0H72.64a0,0,0,0,1,0,0V252.68A31.19,31.19,0,0,1,103.83,221.49Z"/><polygon id="_Clipping_Path_2" data-name="&lt;Clipping Path&gt;" class="cls-8" points="148.35 316.62 107.8 220.49 188.9 220.49 148.35 316.62"/><path class="cls-6" d="M198.06,80.42S179.58,67.69,150,77.87s-51.22,31.82-51.22,31.82l3.6-25.41a30.93,30.93,0,0,1,19.32-24.45l12.78-5a30.93,30.93,0,0,1,8.12-2l12.81-1.32a30.93,30.93,0,0,1,26.45,10.4Z"/></g><circle class="cls-2" cx="401" cy="-209.47" r="132.53"/><g class="cls-9"><path id="_Clipping_Path_3" data-name="&lt;Clipping Path&gt;" class="cls-3" d="M472.5-92.37C472.5-108,460.24-122,444.6-122H359.7c-15.65,0-29.21,14-29.21,29.63C330.5-77.42,292.24,204,292.24,204H510.75Z"/><g class="cls-10"><rect class="cls-11" x="280.09" y="24.3" width="236.02" height="29.34"/><rect class="cls-11" x="280.09" y="84.3" width="236.02" height="29.34"/><rect class="cls-11" x="280.09" y="144.29" width="236.02" height="29.34"/></g></g></svg>