<?xml version="1.0" encoding="utf-8"?>
<!-- Generator: Adobe Illustrator 19.1.0, SVG Export Plug-In . SVG Version: 6.00 Build 0)  -->
<svg version="1.1" id="Layer_1" xmlns="http://www.w3.org/2000/svg" xmlns:xlink="http://www.w3.org/1999/xlink" x="0px" y="0px"
	 viewBox="51 -55 131.5 141" style="enable-background:new 51 -55 131.5 141;" xml:space="preserve">
<style type="text/css">
	.st0{fill:#A6BF62;}
	.st1{fill:#7EB21B;}
	.st2{fill:#336600;}
	.st3{fill:#0D803C;}
	.st4{fill:#CFE0A0;}
</style>
<g>
	<path class="st0" d="M165.8,54.9h-97c-1.3,0-2.5-1-2.5-2.5v-69.6c0-1.3,1-2.5,2.5-2.5h97c1.3,0,2.5,1.1,2.5,2.5v69.6
		C168.1,53.8,167.1,54.9,165.8,54.9z"/>
	<g>
		<path class="st1" d="M165.8,49.8h-97c-1.3,0-2.5-1.1-2.5-2.5v-69.6c0-1.3,1-2.5,2.5-2.5h97c1.3,0,2.5,1.1,2.5,2.5v69.6
			C168.1,48.8,167.1,49.8,165.8,49.8z"/>
		<path class="st2" d="M165.8,51.8h-97c-2.5,0-4.3-1.9-4.3-4.3v-69.7c0-2.5,1.9-4.3,4.3-4.3h97.1c2.5,0,4.3,1.9,4.3,4.3v69.7
			C170.1,49.8,168.1,51.8,165.8,51.8z M68.8-22.6c-0.2,0-0.4,0.1-0.4,0.4v69.7c0,0.2,0.1,0.4,0.4,0.4h97.1c0.2,0,0.4-0.1,0.4-0.4
			v-69.7c0-0.2-0.1-0.4-0.4-0.4C165.9-22.6,68.8-22.6,68.8-22.6z"/>
	</g>
	<g>
		<g id="XMLID_6_">
			<g>
				<path class="st3" d="M150-27.6c6.6,0,10.7,4.6,10.1,10.7v43.3c0,6.6-4,10.7-10.7,10.7c0,0-19.8,0.6-26.8,8.7
					c-4.1,4.6-8.7,2.1-10.7,0c-9.7-8.1-26.8-8.7-26.8-8.7c-5.6,0-10.7-4-10.7-10.7v-42.9c0-7.1,3.1-11.3,10.7-11.3
					c0,0,21.4,1.6,33.1,13.3C130.3-26.8,150-27.6,150-27.6z"/>
			</g>
		</g>
	</g>
	<g>
		<g id="XMLID_5_">
			<g>
				<g>
					<path class="st4" d="M150-30.9c6.6,0,10.7,4.6,10.1,10.7V23c0,6.6-4,10.7-10.7,10.7c0,0-19.8,0.4-26.8,8.7
						c-4.1,4.6-8.7,2-10.7,0c-9.7-8.1-26.8-8.7-26.8-8.7c-5.6,0-10.7-4.1-10.7-10.7v-42.8C74.3-26.9,77.5-31,85-31
						c0,0,21.4,1.6,33.1,13.3C130.3-29.9,150-30.9,150-30.9z"/>
				</g>
			</g>
			<g>
				<g>
					<path class="st2" d="M117.6,47L117.6,47c-3.3,0-6-2.1-6.9-3.1c-8.9-7.6-25.5-8.1-25.7-8.1l0,0c-7.2,0-12.6-5.5-12.6-12.7v-42.8
						c0-6,2.2-13.1,12.7-13.1h0.1c0.9,0.1,20.7,1.6,33,12.5c12.6-11.4,31.1-12.5,31.9-12.5h0.1c3.7,0,7,1.3,9.2,3.7s3.1,5.5,2.9,9
						v43.1c0,7.8-5,12.7-12.7,12.7c-0.1,0-18.9,0.6-25.4,7.9C121.7,46.4,119.1,47,117.6,47z M84.9-28.9c-6,0-8.6,2.8-8.6,9.2v42.8
						c0,5.7,4.3,8.7,8.7,8.7c0.8,0,18.2,0.6,28.2,9.1l0.1,0.1c0.4,0.4,2.2,2,4.2,2l0,0c1.3,0,2.5-0.7,3.7-1.9
						c7.6-8.7,27.5-9.2,28.4-9.2c5.6,0,8.7-3.1,8.7-8.7v-43.3c0.1-2.5-0.4-4.6-1.9-6c-1.4-1.7-3.7-2.5-6.3-2.5
						c-1,0.1-19.4,1.3-30.6,12.6l-1.3,1.3l-1.4-1.7C105.9-27.1,86.1-28.8,84.9-28.9z"/>
				</g>
			</g>
		</g>
	</g>
	<g id="Shape_2_18_">
		<g>
			<g>
				<path class="st1" d="M149.8-13.4c-12,0.7-24.7,5.5-33.4,13.8c1,0,1.9,0,2.8,0C110.2-8.3,97-12.5,84.6-13.4c-2.6-0.1-2.6,3.8,0,4
					c11.1,0.8,23.5,4.8,31.6,12.7c0.8,0.8,2,0.8,2.8,0c7.9-7.7,19.6-12,30.6-12.7C152.3-9.6,152.3-13.5,149.8-13.4L149.8-13.4z"/>
			</g>
		</g>
	</g>
	<g id="Shape_2_17_">
		<g>
			<g>
				<path class="st1" d="M149.8-3.2c-12,0.7-24.7,5.5-33.4,13.8c1,0,1.9,0,2.8,0C110.2,1.9,97-2.4,84.7-3.2c-2.6-0.1-2.6,3.8,0,4
					c11.1,0.8,23.5,4.8,31.6,12.7c0.8,0.8,2,0.8,2.8,0c7.8-7.7,19.5-12,30.5-12.7C152.3,0.5,152.3-3.4,149.8-3.2L149.8-3.2z"/>
			</g>
		</g>
	</g>
	<g id="Shape_2_16_">
		<g>
			<g>
				<path class="st1" d="M149.8,7c-12,0.7-24.7,5.5-33.4,13.8c1,0,1.9,0,2.8,0C110.2,12.1,97,7.9,84.7,7c-2.6-0.1-2.6,3.8,0,4
					c11.3,0.9,23.4,4.8,31.6,12.7c0.8,0.8,2,0.8,2.8,0c7.9-7.7,19.6-12,30.6-12.7C152.3,10.8,152.3,6.8,149.8,7L149.8,7z"/>
			</g>
		</g>
	</g>
</g>
</svg>
