<svg id="Layer_1" data-name="Layer 1" xmlns="http://www.w3.org/2000/svg" width="32" height="28" viewBox="0 0 16 14"><title>recorder-active</title><path d="M11.93,9.32a4.57,4.57,0,0,1-3.19,2.29v1H9.91a0.72,0.72,0,0,1,0,1.43H6.1a0.72,0.72,0,0,1,0-1.43H7.28v-1A4.77,4.77,0,0,1,4.08,9.37a0.68,0.68,0,0,1,.28-1,0.74,0.74,0,0,1,1,.24A3,3,0,0,0,8,10.18a3,3,0,0,0,2.68-1.53h0a0.68,0.68,0,0,1,1-.24A0.68,0.68,0,0,1,11.93,9.32Z" style="fill:#fff"/><path d="M8,9.22A2.07,2.07,0,0,1,5.89,7.17V2.05A2.07,2.07,0,0,1,8,0a2.07,2.07,0,0,1,2.11,2.05V7.17A2.07,2.07,0,0,1,8,9.22Z" style="fill:#fff"/></svg>