<?xml version="1.0" encoding="utf-8"?>
<!-- Generator: Adobe Illustrator 18.1.0, SVG Export Plug-In . SVG Version: 6.00 Build 0)  -->
<!DOCTYPE svg PUBLIC "-//W3C//DTD SVG 1.1//EN" "http://www.w3.org/Graphics/SVG/1.1/DTD/svg11.dtd">
<svg version="1.1" id="Layer_1" xmlns="http://www.w3.org/2000/svg" xmlns:xlink="http://www.w3.org/1999/xlink" x="0px" y="0px"
	 width="17.2px" height="29.9px" viewBox="-285 402.9 17.2 29.9" enable-background="new -285 402.9 17.2 29.9"
	 xml:space="preserve">
<path fill="#FFFFFF" d="M-268.2,423.1c-0.9,1.5-2.6,3.9-6.8,4.8c0-0.3,0,2,0,2h2.5c0.8,0,1.5,0.7,1.5,1.5s-0.7,1.5-1.5,1.5h-8.1
	c-0.8,0-1.5-0.7-1.5-1.5s0.7-1.5,1.5-1.5h2.5v-2c-3.7-0.9-5.7-2.8-6.8-4.7c-0.4-0.7-0.2-1.6,0.6-2c0.7-0.4,1.6-0.2,2.1,0.5
	c0,0,1.6,3.2,5.7,3.2s5.7-3.2,5.7-3.2s0,0,0,0c0.4-0.7,1.3-1,2.1-0.5C-268.1,421.5-267.8,422.4-268.2,423.1z"/>
<path fill="#FFFFFF" d="M-276.5,422.9c-2.5,0-4.5-1.9-4.5-4.3v-10.7c0-2.4,2-4.3,4.5-4.3c2.5,0,4.5,1.9,4.5,4.3v10.7
	C-272,421-274,422.9-276.5,422.9z"/>
</svg>
