<?xml version="1.0" encoding="utf-8"?>
<!-- Generator: Adobe Illustrator 19.1.0, SVG Export Plug-In . SVG Version: 6.00 Build 0)  -->
<svg version="1.1" id="Layer_1" xmlns="http://www.w3.org/2000/svg" xmlns:xlink="http://www.w3.org/1999/xlink" x="0px" y="0px"
	 viewBox="-288 406 17.2 29.9" style="enable-background:new -288 406 17.2 29.9;" xml:space="preserve">
<style type="text/css">
	.st0{fill:#666666;}
</style>
<g>
	<path class="st0" d="M-271,425.8c-0.9,1.5-2.6,3.9-6.8,4.8c0-0.3,0,2,0,2h2.5c0.8,0,1.5,0.7,1.5,1.5s-0.7,1.5-1.5,1.5h-8.1
		c-0.8,0-1.5-0.7-1.5-1.5s0.7-1.5,1.5-1.5h2.5v-2c-3.7-0.9-5.7-2.8-6.8-4.7c-0.4-0.7-0.2-1.6,0.6-2c0.7-0.4,1.6-0.2,2.1,0.5
		c0,0,1.6,3.2,5.7,3.2s5.7-3.2,5.7-3.2l0,0c0.4-0.7,1.3-1,2.1-0.5C-270.9,424.2-270.6,425.1-271,425.8z"/>
	<path class="st0" d="M-279.4,425.6c-2.5,0-4.5-1.9-4.5-4.3v-10.7c0-2.4,2-4.3,4.5-4.3s4.5,1.9,4.5,4.3v10.7
		C-274.9,423.7-276.9,425.6-279.4,425.6z"/>
</g>
</svg>
