<?xml version="1.0" encoding="utf-8"?>
<!-- Generator: Adobe Illustrator 19.1.0, SVG Export Plug-In . SVG Version: 6.00 Build 0)  -->
<svg version="1.1" id="Layer_1" xmlns="http://www.w3.org/2000/svg" xmlns:xlink="http://www.w3.org/1999/xlink" x="0px" y="0px"
	 viewBox="7 -9 43 49" style="enable-background:new 7 -9 43 49;" xml:space="preserve">
<style type="text/css">
	.st0{fill:none;enable-background:new    ;}
	.st1{fill-rule:evenodd;clip-rule:evenodd;fill:#FFFFFF;}
</style>
<path class="st0" d="z"/>
<g id="Shape_2_44_">
	<g>
		<path class="st1" d="M30.2,19.8l5.5-9.2l-9.2,5.5L30.2,19.8z M31,0.7V0.5h2.5C34.9,0.5,36-0.7,36-2s-1.1-2.5-2.5-2.5h-10
			C22.1-4.6,21-3.4,21-2s1.1,2.5,2.5,2.5H26v0.2C17.5,1.9,11,9.2,11,18c0,9.7,7.9,17.5,17.5,17.5S46,27.7,46,18
			C46,9.2,39.5,1.9,31,0.7z M28.5,30.5C21.6,30.5,16,24.9,16,18c0-6.9,5.6-12.5,12.5-12.5S41,11.1,41,18
			C41,24.9,35.4,30.5,28.5,30.5z"/>
	</g>
</g>
</svg>
