<?xml version="1.0"?>
<!--Icons from directory ""-->
<svg xmlns="http://www.w3.org/2000/svg" width="32" height="96" viewBox="0 0 32 96"><svg xmlns:xlink="http://www.w3.org/1999/xlink" id="undo-disabled" style="enable-background:new 0 0 63 43" xml:space="preserve" viewBox="0 0 63 43" version="1.1" y="0" x="0px" width="32" height="32"><style type="text/css">	.st0{fill:#DEDEDD;}	.st1{fill:#FFFFFF;}</style>	<polygon points="17.2 0 17.2 0 0 21.5 17.2 43 17.2 43 63 43 63 0" class="st0"/>	<path id="undo-disabled-scrabble-undo-disabled-Shape_1_10_" d="m42.9 21.5l5.6-5.6c0.4-0.4 0.4-1 0-1.4l-1.5-1.4c-0.4-0.4-1-0.4-1.4 0l-5.6 5.6-5.6-5.6c-0.4-0.4-1-0.4-1.4 0l-1.4 1.4c-0.4 0.4-0.4 1 0 1.4l5.8 5.6-5.6 5.6c-0.4 0.4-0.4 1 0 1.4l1.4 1.4c0.4 0.4 1 0.4 1.4 0l5.6-5.6 5.6 5.6c0.4 0.4 1 0.4 1.4 0l1.4-1.4c0.4-0.4 0.4-1 0-1.4l-5.7-5.6z" class="st1"/></svg><svg xmlns:xlink="http://www.w3.org/1999/xlink" id="undo-enabled" style="enable-background:new 0 0 63 43" xml:space="preserve" viewBox="0 0 63 43" version="1.1" y="32" x="0px" width="32" height="32"><style type="text/css">	.st3{fill:#999999;}	.st1{fill:#FFFFFF;}</style>	<polygon points="17.2 0 17.2 0 0 21.5 17.2 43 17.2 43 63 43 63 0" class="st3"/>	<path id="undo-enabled-scrabble-undo-disabled-Shape_1_10_" d="m42.9 21.5l5.6-5.6c0.4-0.4 0.4-1 0-1.4l-1.5-1.4c-0.4-0.4-1-0.4-1.4 0l-5.6 5.6-5.6-5.6c-0.4-0.4-1-0.4-1.4 0l-1.4 1.4c-0.4 0.4-0.4 1 0 1.4l5.8 5.6-5.6 5.6c-0.4 0.4-0.4 1 0 1.4l1.4 1.4c0.4 0.4 1 0.4 1.4 0l5.6-5.6 5.6 5.6c0.4 0.4 1 0.4 1.4 0l1.4-1.4c0.4-0.4 0.4-1 0-1.4l-5.7-5.6z" class="st1"/></svg><svg xmlns:xlink="http://www.w3.org/1999/xlink" id="undo-hover" style="enable-background:new 0 0 63 43" xml:space="preserve" viewBox="0 0 63 43" version="1.1" y="64" x="0px" width="32" height="32"><style type="text/css">	.st4{fill:#676767;}	.st1{fill:#FFFFFF;}</style>	<polygon points="17.2 0 17.2 0 0 21.5 17.2 43 17.2 43 63 43 63 0" class="st4"/>	<path id="undo-hover-scrabble-undo-disabled-Shape_1_10_" d="m42.9 21.5l5.6-5.6c0.4-0.4 0.4-1 0-1.4l-1.5-1.4c-0.4-0.4-1-0.4-1.4 0l-5.6 5.6-5.6-5.6c-0.4-0.4-1-0.4-1.4 0l-1.4 1.4c-0.4 0.4-0.4 1 0 1.4l5.8 5.6-5.6 5.6c-0.4 0.4-0.4 1 0 1.4l1.4 1.4c0.4 0.4 1 0.4 1.4 0l5.6-5.6 5.6 5.6c0.4 0.4 1 0.4 1.4 0l1.4-1.4c0.4-0.4 0.4-1 0-1.4l-5.7-5.6z" class="st1"/></svg></svg>

