<svg id="Layer_1" data-name="Layer 1" xmlns="http://www.w3.org/2000/svg" width="32" height="28" viewBox="0 0 16 14"><title>volume-disabled</title><path d="M7.75,0a1,1,0,0,0-1,.4s-2.9,3.4-4.2,3.4H1.25A1.32,1.32,0,0,0,0,5.1V8.9a1.32,1.32,0,0,0,1.3,1.3h1.3c1.3,0,4.2,3.4,4.2,3.4a1.49,1.49,0,0,0,.9.4,1.32,1.32,0,0,0,1.3-1.3V1.3A1.18,1.18,0,0,0,7.75,0Zm5.5,1.2-0.7,1.1A5.89,5.89,0,0,1,14.75,7a6.2,6.2,0,0,1-2.2,4.7l0.7,1.1A7.25,7.25,0,0,0,16,7,7.4,7.4,0,0,0,13.25,1.2Zm-1.5,2.2L11,4.5A3.74,3.74,0,0,1,12,7a3,3,0,0,1-1.1,2.4l0.7,1.1A4.63,4.63,0,0,0,13.25,7,4.42,4.42,0,0,0,11.75,3.4Z" style="fill:#666"/></svg>